name C:\Users\u0101727\Documents\MyRepositories\upper-imu-dc\OpenSim\subject0\MA\MA_Splines\angle_in_n6_dof6_3.mot
datacolumns 7
datarows 81
range 300.01000000 300.81000000
endheader 
time	clav_prot	clav_elev	scapula_abduction	scapula_elevation	scapula_upward_rot	scapula_winging	
        300.01000000	        -49.02793530	          2.15399008	         11.28790885	         -7.82036939	         85.49388449	         -2.69349413	
        300.02000000	        -42.60353533	          2.15399008	         11.28790885	         -7.82036939	         85.49388449	         -2.69349413	
        300.03000000	        -36.17913537	          2.15399008	         11.28790885	         -7.82036939	         85.49388449	         -2.69349413	
        300.04000000	        -29.75473540	          2.15399008	         11.28790885	         -7.82036939	         85.49388449	         -2.69349413	
        300.05000000	        -23.33033544	          2.15399008	         11.28790885	         -7.82036939	         85.49388449	         -2.69349413	
        300.06000000	        -16.90593547	          2.15399008	         11.28790885	         -7.82036939	         85.49388449	         -2.69349413	
        300.07000000	        -49.02793530	          7.05722688	         11.28790885	         -7.82036939	         85.49388449	         -2.69349413	
        300.08000000	        -42.60353533	          7.05722688	         11.28790885	         -7.82036939	         85.49388449	         -2.69349413	
        300.09000000	        -36.17913537	          7.05722688	         11.28790885	         -7.82036939	         85.49388449	         -2.69349413	
        300.10000000	        -29.75473540	          7.05722688	         11.28790885	         -7.82036939	         85.49388449	         -2.69349413	
        300.11000000	        -23.33033544	          7.05722688	         11.28790885	         -7.82036939	         85.49388449	         -2.69349413	
        300.12000000	        -16.90593547	          7.05722688	         11.28790885	         -7.82036939	         85.49388449	         -2.69349413	
        300.13000000	        -49.02793530	         11.96046367	         11.28790885	         -7.82036939	         85.49388449	         -2.69349413	
        300.14000000	        -42.60353533	         11.96046367	         11.28790885	         -7.82036939	         85.49388449	         -2.69349413	
        300.15000000	        -36.17913537	         11.96046367	         11.28790885	         -7.82036939	         85.49388449	         -2.69349413	
        300.16000000	        -29.75473540	         11.96046367	         11.28790885	         -7.82036939	         85.49388449	         -2.69349413	
        300.17000000	        -23.33033544	         11.96046367	         11.28790885	         -7.82036939	         85.49388449	         -2.69349413	
        300.18000000	        -16.90593547	         11.96046367	         11.28790885	         -7.82036939	         85.49388449	         -2.69349413	
        300.19000000	        -49.02793530	         16.86370047	         11.28790885	         -7.82036939	         85.49388449	         -2.69349413	
        300.20000000	        -42.60353533	         16.86370047	         11.28790885	         -7.82036939	         85.49388449	         -2.69349413	
        300.21000000	        -36.17913537	         16.86370047	         11.28790885	         -7.82036939	         85.49388449	         -2.69349413	
        300.22000000	        -29.75473540	         16.86370047	         11.28790885	         -7.82036939	         85.49388449	         -2.69349413	
        300.23000000	        -23.33033544	         16.86370047	         11.28790885	         -7.82036939	         85.49388449	         -2.69349413	
        300.24000000	        -16.90593547	         16.86370047	         11.28790885	         -7.82036939	         85.49388449	         -2.69349413	
        300.25000000	        -49.02793530	         -7.65248351	        -37.40470623	         -4.83889401	         85.49388449	         -2.69349413	
        300.26000000	        -42.60353533	         -7.65248351	        -37.40470623	         -4.83889401	         85.49388449	         -2.69349413	
        300.27000000	        -36.17913537	         -7.65248351	        -37.40470623	         -4.83889401	         85.49388449	         -2.69349413	
        300.28000000	        -29.75473540	         -7.65248351	        -37.40470623	         -4.83889401	         85.49388449	         -2.69349413	
        300.29000000	        -23.33033544	         -7.65248351	        -37.40470623	         -4.83889401	         85.49388449	         -2.69349413	
        300.30000000	        -16.90593547	         -7.65248351	        -37.40470623	         -4.83889401	         85.49388449	         -2.69349413	
        300.31000000	        -49.02793530	         -2.74924671	        -37.40470623	         -4.83889401	         85.49388449	         -2.69349413	
        300.32000000	        -42.60353533	         -2.74924671	        -37.40470623	         -4.83889401	         85.49388449	         -2.69349413	
        300.33000000	        -36.17913537	         -2.74924671	        -37.40470623	         -4.83889401	         85.49388449	         -2.69349413	
        300.34000000	        -29.75473540	         -2.74924671	        -37.40470623	         -4.83889401	         85.49388449	         -2.69349413	
        300.35000000	        -23.33033544	         -2.74924671	        -37.40470623	         -4.83889401	         85.49388449	         -2.69349413	
        300.36000000	        -16.90593547	         -2.74924671	        -37.40470623	         -4.83889401	         85.49388449	         -2.69349413	
        300.37000000	        -49.02793530	          2.15399008	        -37.40470623	         -4.83889401	         85.49388449	         -2.69349413	
        300.38000000	        -42.60353533	          2.15399008	        -37.40470623	         -4.83889401	         85.49388449	         -2.69349413	
        300.39000000	        -36.17913537	          2.15399008	        -37.40470623	         -4.83889401	         85.49388449	         -2.69349413	
        300.40000000	        -29.75473540	          2.15399008	        -37.40470623	         -4.83889401	         85.49388449	         -2.69349413	
        300.41000000	        -23.33033544	          2.15399008	        -37.40470623	         -4.83889401	         85.49388449	         -2.69349413	
        300.42000000	        -16.90593547	          2.15399008	        -37.40470623	         -4.83889401	         85.49388449	         -2.69349413	
        300.43000000	        -49.02793530	          7.05722688	        -37.40470623	         -4.83889401	         85.49388449	         -2.69349413	
        300.44000000	        -42.60353533	          7.05722688	        -37.40470623	         -4.83889401	         85.49388449	         -2.69349413	
        300.45000000	        -36.17913537	          7.05722688	        -37.40470623	         -4.83889401	         85.49388449	         -2.69349413	
        300.46000000	        -29.75473540	          7.05722688	        -37.40470623	         -4.83889401	         85.49388449	         -2.69349413	
        300.47000000	        -23.33033544	          7.05722688	        -37.40470623	         -4.83889401	         85.49388449	         -2.69349413	
        300.48000000	        -16.90593547	          7.05722688	        -37.40470623	         -4.83889401	         85.49388449	         -2.69349413	
        300.49000000	        -49.02793530	         11.96046367	        -37.40470623	         -4.83889401	         85.49388449	         -2.69349413	
        300.50000000	        -42.60353533	         11.96046367	        -37.40470623	         -4.83889401	         85.49388449	         -2.69349413	
        300.51000000	        -36.17913537	         11.96046367	        -37.40470623	         -4.83889401	         85.49388449	         -2.69349413	
        300.52000000	        -29.75473540	         11.96046367	        -37.40470623	         -4.83889401	         85.49388449	         -2.69349413	
        300.53000000	        -23.33033544	         11.96046367	        -37.40470623	         -4.83889401	         85.49388449	         -2.69349413	
        300.54000000	        -16.90593547	         11.96046367	        -37.40470623	         -4.83889401	         85.49388449	         -2.69349413	
        300.55000000	        -49.02793530	         16.86370047	        -37.40470623	         -4.83889401	         85.49388449	         -2.69349413	
        300.56000000	        -42.60353533	         16.86370047	        -37.40470623	         -4.83889401	         85.49388449	         -2.69349413	
        300.57000000	        -36.17913537	         16.86370047	        -37.40470623	         -4.83889401	         85.49388449	         -2.69349413	
        300.58000000	        -29.75473540	         16.86370047	        -37.40470623	         -4.83889401	         85.49388449	         -2.69349413	
        300.59000000	        -23.33033544	         16.86370047	        -37.40470623	         -4.83889401	         85.49388449	         -2.69349413	
        300.60000000	        -16.90593547	         16.86370047	        -37.40470623	         -4.83889401	         85.49388449	         -2.69349413	
        300.61000000	        -49.02793530	         -7.65248351	        -27.66618321	         -4.83889401	         85.49388449	         -2.69349413	
        300.62000000	        -42.60353533	         -7.65248351	        -27.66618321	         -4.83889401	         85.49388449	         -2.69349413	
        300.63000000	        -36.17913537	         -7.65248351	        -27.66618321	         -4.83889401	         85.49388449	         -2.69349413	
        300.64000000	        -29.75473540	         -7.65248351	        -27.66618321	         -4.83889401	         85.49388449	         -2.69349413	
        300.65000000	        -23.33033544	         -7.65248351	        -27.66618321	         -4.83889401	         85.49388449	         -2.69349413	
        300.66000000	        -16.90593547	         -7.65248351	        -27.66618321	         -4.83889401	         85.49388449	         -2.69349413	
        300.67000000	        -49.02793530	         -2.74924671	        -27.66618321	         -4.83889401	         85.49388449	         -2.69349413	
        300.68000000	        -42.60353533	         -2.74924671	        -27.66618321	         -4.83889401	         85.49388449	         -2.69349413	
        300.69000000	        -36.17913537	         -2.74924671	        -27.66618321	         -4.83889401	         85.49388449	         -2.69349413	
        300.70000000	        -29.75473540	         -2.74924671	        -27.66618321	         -4.83889401	         85.49388449	         -2.69349413	
        300.71000000	        -23.33033544	         -2.74924671	        -27.66618321	         -4.83889401	         85.49388449	         -2.69349413	
        300.72000000	        -16.90593547	         -2.74924671	        -27.66618321	         -4.83889401	         85.49388449	         -2.69349413	
        300.73000000	        -49.02793530	          2.15399008	        -27.66618321	         -4.83889401	         85.49388449	         -2.69349413	
        300.74000000	        -42.60353533	          2.15399008	        -27.66618321	         -4.83889401	         85.49388449	         -2.69349413	
        300.75000000	        -36.17913537	          2.15399008	        -27.66618321	         -4.83889401	         85.49388449	         -2.69349413	
        300.76000000	        -29.75473540	          2.15399008	        -27.66618321	         -4.83889401	         85.49388449	         -2.69349413	
        300.77000000	        -23.33033544	          2.15399008	        -27.66618321	         -4.83889401	         85.49388449	         -2.69349413	
        300.78000000	        -16.90593547	          2.15399008	        -27.66618321	         -4.83889401	         85.49388449	         -2.69349413	
        300.79000000	        -49.02793530	          7.05722688	        -27.66618321	         -4.83889401	         85.49388449	         -2.69349413	
        300.80000000	        -42.60353533	          7.05722688	        -27.66618321	         -4.83889401	         85.49388449	         -2.69349413	
        300.81000000	        -36.17913537	          7.05722688	        -27.66618321	         -4.83889401	         85.49388449	         -2.69349413	
